<?xml version="1.0" standalone="no"?>
<!DOCTYPE svg PUBLIC "-//W3C//DTD SVG 20010904//EN"
 "http://www.w3.org/TR/2001/REC-SVG-20010904/DTD/svg10.dtd">
<svg version="1.0" xmlns="http://www.w3.org/2000/svg"
 width="300.000000pt" height="300.000000pt" viewBox="0 0 300.000000 300.000000"
 preserveAspectRatio="xMidYMid meet">

<g transform="translate(0.000000,300.000000) scale(0.100000,-0.100000)"
fill="#000000" stroke="none">
<path d="M1567 1758 l-148 -141 -62 61 c-35 34 -69 62 -78 62 -21 0 -113 -96
-105 -109 12 -19 29 -12 68 26 l38 37 70 -69 70 -70 143 143 c78 78 149 142
157 142 8 0 31 -16 51 -36 34 -33 59 -38 59 -13 0 14 -91 109 -104 109 -6 -1
-78 -64 -159 -142z"/>
<path d="M763 1123 c-7 -2 -13 -17 -13 -31 0 -26 2 -27 50 -24 48 4 50 5 50
33 0 27 -3 29 -37 28 -21 0 -44 -3 -50 -6z"/>
<path d="M940 1100 l0 -30 560 0 560 0 0 30 0 30 -560 0 -560 0 0 -30z"/>
<path d="M2160 1101 c0 -27 3 -29 45 -33 43 -3 45 -2 45 23 0 29 -15 39 -61
39 -25 0 -29 -4 -29 -29z"/>
<path d="M563 873 c4 -23 16 -47 32 -60 l26 -23 874 0 875 0 29 28 c16 15 32
40 36 57 l6 29 -27 -27 -27 -27 -884 0 -885 0 -30 31 -31 30 6 -38z"/>
<path d="M4 121 c9 -51 32 -80 79 -102 40 -18 77 -19 753 -19 676 0 712 1 727
18 10 10 17 22 17 27 0 4 -332 6 -737 4 -728 -4 -738 -4 -773 16 -19 12 -43
36 -53 55 l-19 35 6 -34z"/>
</g>
</svg>
